<?xml version="1.0" encoding="UTF-8"?>
<svg width="24" height="24" version="1.1" viewBox="0 0 24 24" xmlns="http://www.w3.org/2000/svg">
 <rect x="3.1199" y="5.3971" width="17.868" height="14.384" opacity=".999" stroke-dasharray="30.0802, 30.0802" stroke-dashoffset="6.016" stroke-linecap="round" stroke-linejoin="round" stroke-width="7.52"/>
 <path d="m20 19v-12h-16v12h16m0-16a2 2 0 0 1 2 2v14a2 2 0 0 1-2 2h-16a2 2 0 0 1-2-2v-14c0-1.11 0.9-2 2-2h16m-7 14v-2h5v2h-5m-3.42-4-4.01-4h2.83l3.3 3.3c0.39 0.39 0.39 1.03 0 1.42l-3.28 3.28h-2.83l3.99-4z" fill="#0f0"/>
</svg>
